<?xml version="1.0" encoding="utf-8"?>
<!-- Generator: Adobe Illustrator 25.0.0, SVG Export Plug-In . SVG Version: 6.00 Build 0)  -->
<svg version="1.1" id="Layer_1" xmlns="http://www.w3.org/2000/svg" xmlns:xlink="http://www.w3.org/1999/xlink" x="0px" y="0px"
	 viewBox="0 0 360 360" style="enable-background:new 0 0 360 360;" xml:space="preserve">
<style type="text/css">
	.st0{fill:#EB6F4D;}
	.st1{fill:#F3AA96;}
</style>
<g>
	<path class="st0" d="M183.11,344.09c-40.36,1.57-83.27-14.03-118.55-48.96c-28.5-28.21-44.79-62.73-48.11-102.64
		C12.2,141.27,28.27,96.74,64.43,60.13c28.72-29.07,63.91-45.36,104.73-48.24c50.59-3.57,94.41,12.5,130.46,48.22
		c28.24,27.98,44.34,62.17,47.85,101.83c4.12,46.53-8.83,88-39.12,123.64C273.23,326.92,227.74,341.44,183.11,344.09z
		 M208.71,151.05l-0.09-0.01c0-4.98,0-9.96,0-14.91c-13.62,0-26.98,0-40.34,0c0,36.94,0,73.77,0,110.63c13.44,0,26.8,0,40.3,0
		c0-0.67,0-1.23,0-1.79c0-19.26-0.02-38.53,0.02-57.79c0-2.22,0.08-4.47,0.5-6.64c1.02-5.27,3.46-9.72,8.27-12.52
		c4.91-2.86,10.7-3.2,15.18,0.24c2.24,1.73,3.93,3.87,5.1,6.42c1.77,3.86,2.23,7.96,2.23,12.15c-0.02,19.48-0.01,38.96-0.01,58.45
		c0,0.5,0,1,0,1.49c13.19,0,26.15,0,39.13,0c0.03-0.27,0.07-0.45,0.07-0.62c-0.08-20.83-0.14-41.65-0.29-62.48
		c-0.03-3.64-0.39-7.28-0.76-10.91c-0.79-7.67-3-14.92-7.06-21.51c-4.86-7.88-11.69-13.13-20.96-14.67
		c-7.07-1.17-14.12-0.56-21.09,0.98c-5.65,1.25-10.87,3.49-15.11,7.51C211.91,146.87,210.4,149.04,208.71,151.05z M98.98,246.81
		c0.45,0.02,0.75,0.05,1.05,0.05c13.08,0,26.15-0.01,39.23,0.03c1.15,0,1.26-0.47,1.26-1.4c-0.04-36.03-0.05-72.05-0.08-108.08
		c0-0.42-0.05-0.84-0.08-1.27c-13.86,0-27.61,0-41.38,0C98.98,173.05,98.98,209.86,98.98,246.81z M119.24,86.22
		c-1.57,0.12-3.16,0.11-4.7,0.37c-11.06,1.86-17.82,11.04-15,22.59c1.09,4.45,3.7,7.92,7.64,10.29c5.44,3.27,11.31,3.55,17.36,2.24
		c4.37-0.95,8.17-2.95,10.92-6.56c3.04-3.99,3.98-8.47,3.33-13.48c-0.86-6.58-4.38-11-10.22-13.76
		C125.62,86.52,122.48,86.13,119.24,86.22z"/>
	<path class="st1" d="M208.71,151.05c-0.02,0.06-0.05,0.12-0.07,0.18c-0.01-0.06-0.01-0.13-0.02-0.19
		C208.62,151.04,208.71,151.05,208.71,151.05z"/>
</g>
</svg>
