<?xml version="1.0" encoding="utf-8"?>
<!-- Generator: Adobe Illustrator 25.0.0, SVG Export Plug-In . SVG Version: 6.00 Build 0)  -->
<svg version="1.1" id="Layer_1" xmlns="http://www.w3.org/2000/svg" xmlns:xlink="http://www.w3.org/1999/xlink" x="0px" y="0px"
	 viewBox="0 0 500 500" style="enable-background:new 0 0 500 500;" xml:space="preserve">
<style type="text/css">
	.st0{fill:#EFBEA3;}
	.st1{fill:#EC6E4C;}
	.st2{fill:#F2F1F0;}
	.st3{fill:#444342;}
	.st4{fill:#D8CCC0;}
	.st5{fill:#EAE9E8;}
	.st6{fill:#495D5C;}
	.st7{fill:#030106;}
	.st8{fill:#F7BCCE;}
	.st9{fill:#603225;}
	.st10{fill:#204549;}
	.st11{fill:#E58FA2;}
	.st12{fill:#BCEDDE;}
	.st13{fill:#040000;}
	.st14{fill:#F43A2E;}
	.st15{fill:#D0F4EA;}
	.st16{fill:#2C4F55;}
	.st17{fill:#DD931D;}
	.st18{fill:#F9E48A;}
	.st19{fill:#FAEEBC;}
	.st20{fill:#FFFFFF;}
	.st21{fill:#E4F9F1;}
	.st22{display:none;fill:#F7E4D2;}
	.st23{display:none;fill:#EFBEA3;}
	.st24{display:none;fill:#EC6E4C;}
</style>
<g>
	<path class="st0" d="M314.1,144.3c5.1-3.8,12.1-6.1,16-11.3c2.7-3.6,3.3-8.1,1.5-12.2c-3.6-8.5-18.2-13.9-23.7-4.1
		c-2.6,4.6-2.3,10.1-3.9,15.1c-4.1,12-8.2,1.1-9.6-6.1c-1.7-8.6-4-21.3-13.1-23.9c-9.4-2.8-18.9,5.2-15.7,16.8
		c4.4,15.9,20.8,23.7,25.4,39.7c1.7,6.1,5.1,9.2,10.6,6.8c0.5-0.2,0.9-0.5,1.2-0.8C302.6,155.1,307.7,148.9,314.1,144.3z"/>
	<path class="st0" d="M137.1,169.1c-2.2-1.1-4.6-1.4-7-0.9c-8.1,1.9-13.4,9.6-16.9,16.6c-0.8,1.6-2.3,5.2-3.9,2.4
		c-0.8-1.3-0.5-4.4-0.1-5.8c3.1-8.9,9.9-17.3,10.3-27c0.2-7.9-6.2-15.5-14.5-12.1c-6.9,2.7-8.8,10.5-8.3,17.1
		c0.3,4.3,2.5,8.2,2.1,12.5c-0.3,2.5-3.1,1.6-4.3,0.3c-2.2-2.2-2.9-6.2-3.8-9.1c-1.2-3.5-2.5-7-4.8-9.8c-2.2-2.9-5.3-5.2-8.9-5.9
		s-7.6,0.8-9.6,3.8c-1.3,2-1.6,4.6-1.5,6.9c0.3,5.7,3.2,10.9,6.8,15.2c4.3,4.9,10.3,8.1,14.3,13.1c0.9,1,0.4,1.7-0.9,1.4
		c-2.5-0.5-4.7-2.4-7.1-3.2c-2.6-0.9-5.5-1.2-8.3-0.9c-2.8,0.3-5.7,1.2-7.7,3.1c-2.2,1.9-3.6,4.7-3.3,7.5c0.4,3.8,3.7,6.8,7.3,8.1
		c3.6,1.3,7.5,1.4,11.2,1.9c5.9,0.7,11.7,2.3,16.8,5.3c2.5,1.5,5,3.5,8,3.9c3.4,0.4,6.8-1.4,9.3-3.7c3.9-3.6,7.2-8.2,11.3-11.6
		c4.6-3.7,9.9-6.3,14.2-10.5C143.7,182.3,145.4,173.2,137.1,169.1z"/>
	<path class="st1" d="M40.8,276.8c8.5,2.1,17.6,2.7,26.2,2.8c65.8,0.9,131.6-0.9,197.4-0.9c36.8,0,73.4,0.4,110.2,0.7
		c18.7,0.1,37.3,0.1,56,0c15.4-0.1,34.7,2.4,49.3-2.7c16.6-5.9,20.3-22,11.6-36.3c-9.8-16-28.6-22.8-46.4-25.5
		c-23-3.4-47.7-2.9-63.4-23c-6.9-8.7-11.1-20-20.6-25.7c-17.6-10.7-40.7-0.8-59.8-8c-32.3-12.2-46.4-49.8-82.6-56.1
		c-19.3-3.3-37,4.1-49.1,19.4c-13.5,17.1-17.5,38.7-27,57.9c-8.1,16.1-24.5,31.4-43.8,26.9c-18.8-4.3-35.3-16.8-55.3-14.5
		c-14.9,1.6-29.9,11.3-37.2,24.5c-9.3,16.8-2.5,35.2,10.5,47.9C23.3,270.7,31.9,274.6,40.8,276.8z"/>
</g>
<g>
	<path class="st2" d="M164.8,307.4c-7.2-0.1-14.7,0.5-21.5,0.9c-11.3,0.7-22.8,1.4-34.2,1.7c-14.4,0.3-29.1-0.7-43.4-1.1
		c-3.9-0.1-8.2-0.2-11.7,1s-5.8,4-3.7,6c2.1,2,6.7,2.1,10.5,2.5c5.3,0.4,10.4,1.7,15.7,2.3c11.1,1.1,22-1.1,33.2-1.5
		c11.8-0.4,23.7,0.8,35.4,1c10.1,0.2,21.9,0.3,31.1-2.6c4.1-1.3,6.8-3.6,5-6.4C178.9,307.6,170.2,307.5,164.8,307.4z"/>
	<g>
		<g>
			<path class="st3" d="M98.2,249.3c-0.1,0-0.2,0-0.3-0.1c-0.2-0.2-0.3-0.5-0.1-0.8c11.2-14.3,29.1-19.9,42-22
				c11.2-1.9,22.9-2.1,34.1-2.2c4.6-0.1,9.4-0.1,14.1-0.3c10.7-0.4,21.5-1.5,32.2-3.2c27.7-4.4,48.8-12.7,64.3-25.2
				c6.8-5.5,13.2-12.3,19.1-20.3c5.8-8,10.8-16.5,14.8-25.4c0.7-1.4,1.3-2.9,1.9-4.4c2.6-6.3,5.5-13,11.3-17
				c2.1-1.4,4.6-2.3,7.2-2.5c7.1-0.5,13.9,2.5,19.4,5l0.7,0.3c5.8,2.5,12.2,5.5,18.5,3.7c0.3-0.1,0.5,0.1,0.7,0.4
				c0.1,0.3-0.1,0.5-0.4,0.7c-6.8,1.9-13.4-1.2-19.3-3.8l-0.7-0.3c-5.7-2.5-12.1-5.3-18.9-4.9c-2.4,0.2-4.7,1-6.7,2.3
				c-5.7,3.8-8.3,10.3-10.9,16.5c-0.7,1.4-1.2,2.9-1.9,4.4c-4.1,9.1-9.2,17.7-14.9,25.6c-5.9,8.1-12.3,14.9-19.2,20.5
				c-15.8,12.7-37,20.9-64.9,25.4c-10.7,1.7-21.5,2.7-32.3,3.2c-4.7,0.2-9.5,0.2-14.1,0.3c-11.2,0.1-22.8,0.3-34,2.2
				c-12.8,2.2-30.3,7.6-41.3,21.6C98.5,249.2,98.3,249.3,98.2,249.3z"/>
		</g>
		<g>
			<path class="st4" d="M141.7,290.8c-0.2,6.5-3.1,12.8-6.2,18.4c-0.7,1.1-1.3,2.3-1.5,3.5c-0.1,0.4-0.1,1,0.1,1.4
				c0.3,0.7,1.2,0.8,2,0.5c0.7-0.2,1.2-0.8,1.7-1.3c1.5-1.7,2.7-3.7,4-5.6c2.7-3.8,6.2-7.1,9.1-10.8c2.8-3.7,5.1-8.2,5-12.9
				c-0.1-2.4-0.9-4.9-2.6-6.4c-1.2-1.1-2.8-1.6-4.5-2c-1.6-0.3-3.5-0.5-5,0.1c-2.6,1.1-2.6,3.1-2.4,5.3
				C141.5,284.5,141.8,287.8,141.7,290.8z"/>
			<path class="st4" d="M93.6,290.1c1,1.7,1.9,3.6,2.9,5.2c0.9,1.3,1.9,2.5,2.9,3.8c3.4,4.4,6.4,8.9,9.1,13.9
				c0.4,0.8,0.9,1.6,1.5,2.2c0.7,0.7,1.6,1,2.5,0.8c1.1-0.3,1.6-1.5,1.6-2.6s-0.5-2.2-1.1-3.2c-4-7.9-7.6-16-9.6-24.6
				c-0.5-2.3-1.1-4.7-2.8-6.1c-1.5-1.3-3.4-1.2-5.2-1.6c-1.7-0.4-3.2-0.8-4.9,0c-2.4,1-2.8,3.1-1.5,4.9
				C90.4,285.1,92.1,287.5,93.6,290.1z"/>
			<path class="st5" d="M166.6,251.4c2.8-4.9,4.9-10.1,6.4-15.6c0.8-2.7,1.3-5.6,1.6-8.4c0.3-2.3,1.1-4.8,0.4-7
				c-0.3-1.2-1.6-0.9-2.4-0.1c-0.4,0.4-0.7,1.1-0.8,1.6c-2.3,6.1-3.8,12.7-7,18.3c-4.4,7.7-11,11.9-19.7,13.1
				c-7.1,1-14.3,1.1-21.4,0.7c-3.6-0.2-7.2-0.3-10.7-0.9c-3.2-0.4-6.4-0.3-9.5-1.2c-4-1-6.5-3.3-9.2-6.3c-2.3-2.6-4.7-5.2-7.7-6.9
				c-3.1-1.6-7-2.1-10-0.4c-4.6,2.6-6.5,9.6-11.9,9.8c-0.7,0-1.3-0.1-2,0.1c-2.3,0.7-2.3,4-1,6c1.2,1.9,3.2,3.3,5.3,3.9
				c3.6,1.1,7.5,0,11,1.3c12.9,4.7,1.6,21.8-3.1,28.2c-4.6,6.3-9.3,12.8-14.9,18.1c-1.6,1.5-3.2,2.9-4.1,4.8
				c-0.3,0.5-0.5,1.3-0.3,1.9c1.1,2.3,4.8,0.9,6.3,0c2-1.2,3.5-2.8,5.2-4.4c2.6-2.3,5.2-4.5,7.9-6.8c5.5-4.8,11.1-9.7,17.5-13.3
				c3.3-1.9,6.8-3.8,10.6-4.4c4-0.5,8.2,0,12.2,0c5.7,0.1,11.3-0.1,16.9-0.2c7-0.2,13-1.1,19.5,2.3c8.1,4.1,13.4,12.8,15.1,21.6
				c0.4,2.3,0.1,4.7,1.1,6.9c1,2.1,4,2.9,5.2,0.5c0.5-1.2,0.4-2.6,0.2-4c-0.8-4.9-2.1-9.7-3.2-14.5c-0.9-3.8-2.4-7.4-3.4-11.1
				c-1-3.6-1.6-7.4-3.9-10.5c-1.7-2.4-3.5-4.1-3.2-7.3c0.2-1.9,0.8-3.7,1.4-5.6C162.4,257.9,164.7,254.6,166.6,251.4z"/>
			<path class="st6" d="M100.8,249.8c-0.2-0.2-0.5-0.4-0.9-0.7c-0.9-0.5-1.6-1.1-2.5-1.5c-0.3-0.2-0.8-0.5-1.2-0.4
				c-0.3,0.1-0.9,1-1.1,1.3c-0.8,0.9-1.5,1.9-2.3,2.7c-1.5,1.7-3.2,3.4-4.9,4.9c-1.6,1.4-3.3,2.8-5.1,4c-0.5,0.3-1.2,0.8-1.3,1.4
				c-0.1,0.7,0.3,1.1,0.5,1.6c0.3,0.5,0.7,1.2,0.9,1.9c0.3,1.1,1,1.9,2.2,1.2c6.2-3.1,11-8.3,15.3-13.7c0.4-0.7,1-1.3,0.8-2.1
				C101.1,250.2,101,249.9,100.8,249.8z"/>
			<path class="st7" d="M94.1,242.3c-0.5-1.1-1.3-2.1-2.4-2.9c-1-0.8-2.2-1.4-3.4-1.9c-2.5-1-5.2-1.4-8-1.1c-0.5,0.1-1.5,0.2-1.2,1
				c0.3,1,1.6,1.2,2.3,1.7c1.7,1.5,1.6,4.4,1.6,6.4c-0.1,2.5-0.5,5.1-0.3,7.6c0.1,1.7,0.5,3.6,1.9,4.9c0.8,0.8,1.9,1.3,2.8,1.6
				c2,0.7,4.5,0.9,6.1-0.5c1.9-1.7,1.6-5.2,1.7-7.5c0-2,0-3.9-0.2-5.9C94.9,244.5,94.6,243.3,94.1,242.3z"/>
		</g>
	</g>
</g>
<g>
	<path class="st2" d="M460.4,313.9c-6.4-2.3-15.3-1.6-21.8-1.6c-24.9,0.1-49.7,3.3-74.6,3.3c-11.2,0-22.5-0.5-33.7,0.5
		c-5.8,0.5-11.9,1.5-17.2,3.3c-2.2,0.8-5.5,1.9-6.2,3.8c-2.8,7.4,19.9,6.2,23.9,6.1c12.9-0.3,25.5-2,38.4-2.2
		c24.3-0.4,48.5,4.1,72.7,2.6c5.9-0.3,12-0.8,17.5-2.8c5.2-2,10.8-6.8,5.1-11C463.2,315.1,461.9,314.4,460.4,313.9z"/>
	<g>
		<path class="st8" d="M418.5,158.5c-1.1,2.8-2.3,5.7-3.6,8.5c-2.7,5.9-5.7,11.6-8.7,17.2c-5.1,9.2-10.8,18-16.9,26.4
			c-6.1,8.4-13.5,15.9-18.8,24.9c-2.4,4-1.6,9.1-1.5,13.5c0.1,2.3,0,4.6-0.1,6.8c-1.2,14.3-6.8,27.6-13.3,40
			c-2.4,4.6-4.9,9.3-7.2,14c-0.2,0.5-0.5,1.2-0.8,1.9c-0.2,0.4-0.3,0.9-0.5,1.3c-0.2,0.5-0.5,1-0.7,1.5c-0.1,0.5-0.1,1.1-0.1,1.6
			l-0.1,0.9l-0.4,5l-24.2-1.3v-1c1.9-0.7,3.8-1.2,5.7-1.7c0.3-0.1,0.7-0.2,1-0.2c3.2-0.9,6.3-1.9,9.4-3.3c0.3-0.2,0.7-0.4,0.8-0.8
			c0.5-2.2,1-4.4,1.5-6.7c0.4-2.3,1-4.6,1.4-7c0.4-2.3,0.9-4.6,1.4-7c0.3-1.9,0.8-3.7,1.1-5.7c0.2-1,0.4-2,0.7-3.1
			c1-4.8,2.1-9.6,3.1-14.4c3.2-14.9,6.4-29.8,10.7-44.4c3.8-13.7,9.4-27,14.9-40.1c4.8-11.2,10.9-22,14.1-33.9
			c0-0.1,0.2-0.8,0.4-1.5l32.7,1.7C421.2,153.9,419.3,156.6,418.5,158.5z"/>
		<path class="st9" d="M346.2,316.9l-0.4,5l-24.2-1.3v-1c1.9-0.7,3.8-1.2,5.7-1.7c0.3-0.1,0.7-0.2,1-0.2c0.1,0.1,0.3,0.1,0.4,0.2
			c3.3,1.4,7.1,1.6,10.7,1.2c1.6-0.2,3.4-0.4,4.9-1C344.5,317.8,345.3,317.5,346.2,316.9z"/>
	</g>
	<path class="st8" d="M451.4,311.7c-1.6,1.6-3.3,3.3-4.9,4.9c-2.1,2.1-4.1,4-6.2,6.1c-0.2,0.2-0.5,0.7-0.8,0.8c-0.2,0.1-0.5,0-0.9,0
		c-0.8-0.1-1.4-0.1-2.2-0.2s-1.4-0.2-2.2-0.2c-0.2,0-2.1-0.1-2.1-0.2c-0.1-0.2,0-0.3,0.1-0.5c0.1-0.1,0.3-0.2,0.5-0.2
		c0.8-0.2,1.4-0.4,2.2-0.7c0.5-0.1,1-0.3,1.4-0.7c0.4-0.2,0.4-0.7,0.5-1.1c0.1-0.4,0.2-0.9,0.4-1.4c0.2-0.5,0.3-1.2,0.5-1.9
		c0.7-2.2,1-4.5,1.5-6.7c0-0.2,0.1-0.4,0.2-0.7c0-0.1,0-0.3-0.1-0.4c-0.2-0.8-0.5-1.4-0.8-2.1c-1.2-3.2-2.5-6.2-3.8-9.4
		c-1.5-3.6-3.1-7.1-4.6-10.7c-0.9-2.1-1.7-4.1-2.6-6.2c-1.9-4.4-3.6-8.8-5.5-13.2c-5.7-13.7-11.2-27.5-15.9-41.6
		c-0.4-1.3-0.9-2.7-1.3-4c-3.3-10.6-5.7-21.3-7.9-32.2c-1.5-7.5-2.5-15.2-4.3-22.7c-0.7-2.6-1.4-5.2-2.3-7.9c-0.9-2.4-2.1-4.6-2.8-7
		c-2.9-8.3-4.6-17.2-4.5-26.1c0-2.8,0.2-5.6,0.3-8.4c0.1-2.7-0.1-5.5,0.1-8.2c0.1-1.5,0.1-2.9-0.2-4.4c-0.3-1.4-1.1-2.7-1.7-4
		c-2.7-5.1-5.1-11.2-3.2-16.7c0.9-2.2,2.3-4,3.8-5.7c1.7-1.9,3.6-3.6,5.5-5.2c2.9-2.6,7.4-5.8,7.1-10.3c-0.2-2.7-1.5-5.3-2.6-7.9
		c-0.4-1-1-1.9-1.3-2.8c-2.3,0.5-4.7,1-7.1,1.2c-0.5,0-1.1,0.1-1.5-0.2c-0.4-0.3-0.7-0.9-0.9-1.3c-0.4-0.9-0.9-1.7-1.1-2.6
		c-0.7-1.9-1-3.7-1.1-5.7c0-0.3,0-0.5-0.2-0.8c-0.1-0.1-0.3-0.2-0.5-0.2c-0.7-0.1-1.3-0.2-2-0.3c-0.4-0.1-0.9-0.2-1.1-0.5
		c-0.3-0.5,0.1-1.2,0.4-1.6c1.2-1.5,2.6-2.8,3.8-4.4c1.7-2.4,2.8-5.1,3.8-7.9c0.4-1.3,1.2-2.5,1.9-3.7c0.7-1.3,1.4-2.5,2.2-3.7
		c0.4-0.7,0.7-1.3,1.5-1.5c0.9-0.3,1.9-0.5,2.7-0.7c3.9-0.7,8.3,0.5,11.7,2.4c4.5,2.5,7.2,7.2,8,12.3c0.3,2.3,0.2,4.8-0.4,7.1
		c-0.7,2.3-1.7,4.3-2.8,6.3c-1.4,2.7-2.6,6-1.6,9.1c1,2.9,2.8,5.3,4.7,7.9c3.9,5.1,7.5,10.9,7.7,17.7c0.2,6.9-2.2,13.4-4.5,19.7
		c-1.4,4-3.6,7.7-4.5,12c-0.8,3.9,0.2,8.1,2,11.6c2.3,4.5,5.8,8.2,8.6,12.3c6,8.6,6.3,19.3,5.9,29.4c-0.4,11-1.4,21.9-2.2,32.9
		c-0.5,8.8-2.8,17.6-2.9,26.5c0,5,3.6,9.1,6.4,12.8c5.6,7.3,9.1,15.8,11.6,24.6c0.9,2.9,1.5,5.9,2.1,8.9c0.7,3.6,1.3,7.3,1.7,11
		c0.4,2.8,1,5.7,1.4,8.5c0.1,0.9,0.2,1.7,0.4,2.6c0.2,1.9,0.5,3.7,0.9,5.5c0.2,1.4,0.3,3.2,1,4.6c0.1,0.2,0.2,0.4,0.3,0.8
		c0.3,0.7,0.7,1.3,1,1.9c0,0.1,0.1,0.1,0.1,0.2c0.4,0.9,1,1.7,1.4,2.5c0.3,0.7,0.7,1.2,1.1,1.9C451.1,310.9,451.5,311.6,451.4,311.7
		z"/>
	<path class="st10" d="M428.2,151.2c-1.1-3.8-3.2-6.9-5.8-9.8c-2.4-2.7-5.5-2.5-8.7-2.3c-5.3,0.4-11,1.2-16,3.5
		c-4,1.9-5.9,4.6-6,9.1c-0.1,4.9,1,9.7,1.7,14.4c1.2,7.4,1.9,14.9,1.9,22.4c0,3.5,2.9,3.9,5.7,4.4c4.3,0.7,8.5,1.4,12.8,2.3
		c2.1,0.4,4.3,0.9,6.3,1.4c1.5,0.3,3.2,0.9,4.8,1c1,0.1,1.9-0.2,2.3-1.2c0.3-0.7,0.2-1.5,0.2-2.2c-0.7-13.9,4.4-28.1,1.1-41.9
		C428.3,151.8,428.2,151.5,428.2,151.2z"/>
	<path class="st11" d="M386.3,95c-0.8-1.3-2.9-2.3-4.5-2.2c-1.5,0.1-2.7,1.2-3.7,2.2c-1.2,1.1-2.2,2.3-3.5,3.3
		c-3.1,2.5-6.3,4.8-9.8,6.8c-2.6,1.4-5.2,2.7-7.9,4.1c-3.5,1.9-7,3.7-10.6,5.3c-1.1,0.5-2.2,1-3.3,1.5c-2.7,1.2-5.3,2.3-8.1,3.5
		c-2.3,1.1-4.8,2.2-6.5,4.3c-1.9,2.2-2,5.3-2.2,8.1c0,0.4-0.1,0.9,0,1.3c0.2,0.7,0.9,0.3,1.4,0.2c1-0.2,2.1-0.2,3.2-0.3
		c0.9-0.2,1.7-0.5,2.6-1c1.4-0.8,2.6-1.7,3.6-2.9c0.4-0.5,1-1.2,1.3-2c0.3-0.8,0.4-1.6,0.9-2.3c0.9-1.6,2.7-2.3,4.4-2.8
		c9.7-3.3,19.4-6.4,29.1-9.7c1.6-0.5,3.4-1.1,4.8-2.1c1.5-1,2.7-2.4,3.8-3.8c1.9-2.2,3.7-4.5,4.7-7.1C386.8,97.7,387,96.2,386.3,95z
		"/>
	<path class="st12" d="M402.9,84.9c0.3-3.1,0.1-6.1-0.8-9.3c-1.3-4.9-7.2-7.2-11.8-5.2c-4.1,1.7-4.4,6.7-6.1,10.1
		c-1.9,3.6-4.3,6.9-7.2,9.5c-5,4.6-11.6,5.3-18.1,6.8c-8.8,2-18.3,6.8-19.4,16.7c-0.8,0.4-1.4,0.9-1.9,1.5l-0.1,0.1
		c-1,1.4-1.6,3.1-1.4,4.9c0.2,1.5,1.1,3.4,2.4,4.4c1.1,0.9,2.5,1.4,3.9,1.4c1.9,2.7,4.5,5,7.6,6.4c7.6,3.4,16.3,1.6,23.2-2.6
		c14.4-8.6,24.9-23.9,28.7-40.1C402.6,88,402.8,86.5,402.9,84.9z"/>
	<path class="st13" d="M425.9,17c0-6.3-5.1-11.6-11.6-11.6c-6.4,0-11.6,5.1-11.6,11.6c0,0.2,0,0.4,0,0.7c-0.1,0-0.2-0.1-0.3-0.1
		c-3.1-0.8-6.3-0.8-9.4,0.1l0,0c-7.1,0.4-12.8,6.3-12.9,13.5h11.5c0.7,0.8,1.4,1.5,2.3,2.1c0.1,0.1,0.3,0.2,0.5,0.2
		c0.5,0,0.9-0.7,1-1.2c0.3-0.9,0.7-1.7,1.2-2.5c0.7-0.7,1.6-1.2,2.5-1c1.3,0.2,2.1,1.6,2.3,2.9c0.7,3.5-1.3,7.4-4.6,8.8
		c0,2.7,1.3,5.2,3.2,7.3c1.9,2,4,3.6,6.3,5c-0.4-0.3,1.5-3.6,1.7-3.9c2.4-3.8,5-6.9,6-11.3c0.7-3.1,0.8-6.1-0.1-8.9
		c0.1,0,0.1,0,0.2,0C420.7,28.4,425.9,23.3,425.9,17z"/>
	<path class="st14" d="M413.4,42.3c0-0.7-0.4-1.1-1.1-1.6c-1-0.8-1.9-1.7-2.8-2.6c-1.1-1-2.1-2-3.1-2.9c-4.4-4.8-7.1-10.9-9.5-16.8
		c-0.2-0.4-0.2-1-0.7-1.2c-0.2-0.1-0.4-0.2-0.7-0.2c-1.1-0.3-2.4-0.3-3.6,0c-0.7,0.2-2.5,0.8-2.4,1.6c0,0.7,0.4,1.4,0.7,2.1
		c0.3,0.8,0.5,1.5,0.9,2.3c2.4,6.3,5.8,12.3,10.3,17.6c2.2,2.6,4.6,4.9,7.2,7.1C411.2,49.5,413.5,44.2,413.4,42.3z"/>
	<path class="st15" d="M420.1,81.7c-0.1-4.8-1.3-9.5-3.6-13.7c-2.5-4.8-6.2-8.9-8.7-13.7c-4.9,1.4-9.8,2.5-14.8,3.4
		c0.8,1.1,1,2.6,1,4c0,2.2-1.1,4.3-2.6,5.9c-1.4,1.6-3.3,2.9-5,4.4c-4.7,4-10.8,9.3-10.6,16c0.1,3.4,0.9,6.7,2.3,9.7
		c1.2,2.5,2.8,4.9,3.5,7.6c0.8,2.9,0.8,6.1,0.9,9.2c0,1.5,0,3.1,0,4.7c0,0.5-0.1,4.6-0.5,4.8c2.7-0.9,5.5-1.5,8.3-2
		c7.6-1.2,15.3-2,22.9-2.4c-1.1-5.8,1-11.7,2.8-17.2C418.1,95.6,420.4,88.7,420.1,81.7z"/>
	<path class="st16" d="M426.5,150.3c-0.5-4-1.7-8-3.4-11.7c-0.9-1.9-1.9-3.7-2.8-5.5c-0.9-1.4-1.5-3.1-2.7-4.3
		c-1.2-1.2-2.6,0.1-3.9,0.7c-1.4,0.7-2.8,1.2-4.3,1.7c-7.7,2.9-15.7,3.9-23.9,5c-0.2,0-0.4,0.1-0.7,0.1c-1.7,0.3-1.1,1.9-0.9,3.2
		c0.5,3.9,1.2,8,0.8,11.9c-0.4,3.9-1.7,7.7-3.3,11.5c-1.4,3.6-3.4,7.2-5.2,10.8c-1.4,2.8-5.1,7.9-4.1,11.1c0.4,1.3,1.5,2.2,2.5,2.9
		c3.6,2.7,7.2,5.6,11.1,7.7c2,1.1,4.1,1.9,6.2,2.5c1.9,0.5,4,1.9,6,1.4c1.7-0.3,2.8-2.9,3.8-4.1c4-5,8.7-9.4,13-14.2
		C422.3,172.4,428.1,162.3,426.5,150.3z"/>
	<path class="st9" d="M451.4,311.7c-1.6,1.6-3.3,3.3-4.9,4.9c-2.1,2.1-4.1,4-6.2,6.1c-0.2,0.2-0.5,0.7-0.8,0.8c-0.2,0.1-0.5,0-0.9,0
		c-0.8-0.1-1.4-0.1-2.2-0.2s-1.4-0.2-2.2-0.2c-0.2,0-2.1-0.1-2.1-0.2c-0.1-0.2,0-0.3,0.1-0.5c0.1-0.1,0.3-0.2,0.5-0.2
		c0.8-0.2,1.4-0.4,2.2-0.7c0.5-0.1,1-0.3,1.4-0.7c0.4-0.2,0.4-0.7,0.5-1.1c0.1-0.4,0.2-0.9,0.4-1.4c0.3,0.2,0.8,0.4,1.2,0.3
		c0.2,0,0.4-0.1,0.7-0.2c2.4-1.2,4.1-3.4,5.7-5.5c1.4-2,2.6-4.1,3.5-6.4c0.4,0.9,1,1.7,1.4,2.5c0.3,0.7,0.7,1.2,1.1,1.9
		C451.1,310.9,451.5,311.6,451.4,311.7z"/>
	<g>
		<path class="st17" d="M424.9,167.6c-0.5,0-1-0.4-1.1-1c-2.5-18-10.9-34.4-19.1-50.2c-3.5-6.8-7.1-13.7-10.3-20.8l-0.5-1.1
			c-2.4-5.3-5.3-12-3.5-18.1c2.1-7,10.3-9.2,16.9-7.4c9.7,2.7,17.2,10.6,24,17.5l0.1,0.1c9.6,9.9,17.6,20,23.8,29.8
			c6.3,10,10.7,20.9,14.9,31.4c0.7,1.5,1.2,3.2,1.9,4.7c0.2,0.5,0,1.2-0.7,1.4c-0.5,0.2-1.2,0-1.4-0.7c-0.7-1.5-1.3-3.2-1.9-4.7
			c-4.4-10.9-8.5-21.3-14.7-31.1c-6.1-9.7-14-19.5-23.4-29.3l-0.1-0.1c-6.4-6.8-13.9-14.3-22.9-16.9c-5.7-1.5-12.4,0.2-14.2,5.9
			c-1.6,5.3,1.1,11.2,3.4,16.6l0.5,1.1c3.1,7,6.7,14,10.1,20.7c8.3,15.9,16.8,32.5,19.3,50.8c0.1,0.5-0.3,1.2-1,1.2
			C425,167.6,425,167.6,424.9,167.6z"/>
	</g>
	<g>
		<path class="st18" d="M420.6,166.4l4.9,14.3c3.6,10.4,14.9,16,25.3,12.4l15.6-5.3c10.4-3.6,16-14.9,12.4-25.3l-4.9-14.3
			L420.6,166.4z"/>
		<path class="st19" d="M423.3,164.5l4.4,12.7c3.2,9.3,13.3,14.2,22.5,11l13.9-4.7c9.3-3.2,14.2-13.3,11-22.5l-4.4-12.7L423.3,164.5
			z"/>
		<path class="st20" d="M458.4,181.2c0.5,1.5-0.3,3.1-1.7,3.6c-1.5,0.5-3.1-0.3-3.6-1.7c-0.5-1.5,0.3-3.1,1.7-3.6
			C456.2,178.9,457.9,179.7,458.4,181.2z"/>
	</g>
	<g>
		<path class="st11" d="M456.6,170c-0.1-0.1-0.2-0.2-0.3-0.3c-1.2-1-2.4-2.1-3.4-3.3c-1.1-1.3-0.5-3.1-0.2-4.6c0.4-2.1,1-4.1,1-6.2
			c-0.1-2.2-1.2-3.8-2.6-5.3c0.3-0.3-3.5-8-3.8-8.9c-3.9-9.2-7-18.5-12.5-26.8c-0.5-0.8-1.1-1.6-1.6-2.4c-2.8-4.4-5.8-8.6-8.7-12.9
			c-2.9-4.1-6-8.3-9.3-12.2c-2.9-3.7-6-7.5-9.6-10.8c-1.5-1.4-3.3-2.7-5.1-3.7c-1.6-0.9-3.7-1.6-5.3-0.7c-2,1.1-2.2,3.9-1.9,6.2
			c1.2,7,5.8,12.3,10.3,17.5c2.6,2.9,5.7,5.5,8.5,8.1c3.4,3.2,6.7,6.3,9.8,9.6c2,2.1,4.1,3.9,5.7,6.3c1.7,2.6,2.4,5.7,3.5,8.6
			c3.1,7.6,7.7,14.3,11.6,21.5c0.8,1.4,1.7,3.2,1.7,4.8c0.1,3.3,0.2,6.5,0.3,9.8c0.1,2.8,2.3,4.9,4.8,5.7c1.7,0.5,3.4,1,5.1,1.3
			c0.4,0.1,1,0.2,1.4,0C456.5,171,456.8,170.4,456.6,170z"/>
		<path class="st21" d="M455.4,115.5c-3.1-7.7-8.1-14.9-12.8-21.3c-5.8-7.9-13-14.8-21.3-20c-7.1-4.4-19.9-11-27.6-4.8
			c-5.7,4.6-3.4,12.3-0.4,17.8c2.6,5,6.5,9.3,10.1,13.6c4,4.9,8,9.9,11.1,15.5c3.3,5.9,5,12,6.8,18.4c1,3.8,2.3,7.6,4.7,10.8
			c3.5,4.7,9.2,6.8,14.6,6.1c0.8,1,1.9,1.7,3.1,2.1c1.6,0.4,3.5,0.4,5-0.4c1.4-0.9,2.7-2.2,3.2-3.8v-0.1c0.2-1,0.3-2,0.2-2.9
			c0-0.1,0-0.1,0-0.2v-0.1c0-0.1,0-0.3-0.1-0.4v-0.1c0,0,0,0,0-0.1c4.4-4.8,6.9-11.6,6.4-18C458,123.4,456.9,119.4,455.4,115.5z"/>
	</g>
</g>
<rect x="20" y="-79" class="st22" width="68.3" height="43.6"/>
<rect x="110.7" y="-79" class="st23" width="68.3" height="43.6"/>
<rect x="203.7" y="-79" class="st24" width="68.3" height="43.6"/>
</svg>
